<?xml version="1.0" standalone="no"?><!DOCTYPE svg PUBLIC "-//W3C//DTD SVG 1.1//EN" "http://www.w3.org/Graphics/SVG/1.1/DTD/svg11.dtd"><svg t="1546068820064" class="icon" style="" viewBox="0 0 1024 1024" version="1.1" xmlns="http://www.w3.org/2000/svg" p-id="9169" xmlns:xlink="http://www.w3.org/1999/xlink" width="32" height="32"><defs><style type="text/css"></style></defs><path d="M763.008 74.432a32 32 0 0 0-22.4 9.6l-176.64 176a32 32 0 0 0-0.192 45.248l0.192 0.192 176.64 176a32 32 0 0 0 45.248 0.192l0.192-0.192 176-176.64a32 32 0 0 0 0.192-45.248l-0.192-0.192-176.64-176a31.744 31.744 0 0 0-22.4-8.96z" fill="#4AB4FA" p-id="9170"></path><path d="M352 1023.488h-256a96 96 0 0 1-96-96v-256a96 96 0 0 1 96-96h256a96 96 0 0 1 96 96v256a96 96 0 0 1-96 96z m-256-384a32 32 0 0 0-32 32v256a32 32 0 0 0 32 32h256a32 32 0 0 0 32-32v-256a32 32 0 0 0-32-32h-256z m256-128.064h-256a96 96 0 0 1-96-96v-256a96 96 0 0 1 96-96h256a96 96 0 0 1 96 96v256c0.064 53.056-42.944 96-96 96z m-256-384a32 32 0 0 0-32 32v256a32 32 0 0 0 32 32h256a32 32 0 0 0 32-32v-256a32 32 0 0 0-32-32h-256z m768.064 896.064h-256a96 96 0 0 1-96-96v-256a96 96 0 0 1 96-96h256a96 96 0 0 1 96 96v256a96 96 0 0 1-96 96z m-256-384a32 32 0 0 0-32 32v256a32 32 0 0 0 32 32h256a32 32 0 0 0 32-32v-256a32 32 0 0 0-32-32h-256z m144-96.064a95.36 95.36 0 0 1-67.84-28.16l-176-176a96 96 0 0 1 0-135.68l176-176a98.56 98.56 0 0 1 135.68 0l176 176a96 96 0 0 1 0 135.68l-176 176c-17.92 18.112-42.368 28.224-67.84 28.16z m0-480a32 32 0 0 0-22.4 9.6l-176.64 176a32 32 0 0 0-0.192 45.248l0.192 0.192 176.64 176a32 32 0 0 0 45.248 0.192l0.192-0.192 176-176.64a32 32 0 0 0 0.192-45.248l-0.192-0.192-176.64-176a31.872 31.872 0 0 0-22.4-8.96z" fill="#95979B" p-id="9171"></path></svg>