<?xml version="1.0" standalone="no"?><!DOCTYPE svg PUBLIC "-//W3C//DTD SVG 1.1//EN" "http://www.w3.org/Graphics/SVG/1.1/DTD/svg11.dtd"><svg t="1546068767903" class="icon" style="" viewBox="0 0 1024 1024" version="1.1" xmlns="http://www.w3.org/2000/svg" p-id="9056" xmlns:xlink="http://www.w3.org/1999/xlink" width="32" height="32"><defs><style type="text/css"></style></defs><path d="M272.64 526.848l256-256 256 256-256 256z" fill="#6EC3FB" p-id="9057"></path><path d="M955.392 768L512 1024l-443.392-256V256L512 0l443.392 256v512z m-44.352-486.4L512 51.2 112.96 281.6v460.8L512 972.8l399.04-230.4V281.6z" fill="#95979B" p-id="9058"></path><path d="M832 832H192V192h640v640z m-51.2-588.8H243.2v537.6h537.6V243.2z" fill="#95979B" p-id="9059"></path><path d="M832 512l-320 320-320-320 320-320 320 320zM512 256L256 512l256 256 256-256-256-256z" fill="#95979B" p-id="9060"></path><path d="M608 512a96 96 0 1 1-192.064-0.064A96 96 0 0 1 608 512zM512 448a64 64 0 1 0 0 128 64 64 0 0 0 0-128z" fill="#95979B" p-id="9061"></path></svg>