<?xml version="1.0" standalone="no"?><!DOCTYPE svg PUBLIC "-//W3C//DTD SVG 1.1//EN" "http://www.w3.org/Graphics/SVG/1.1/DTD/svg11.dtd"><svg t="1543304512958" class="icon" style="" viewBox="0 0 1024 1024" version="1.1" xmlns="http://www.w3.org/2000/svg" p-id="43590" xmlns:xlink="http://www.w3.org/1999/xlink" width="200" height="200"><defs><style type="text/css"></style></defs><path fill="#95979B" d="M419.589776 448.099994h-332.395226a57.852384 57.852384 0 0 1-57.852384-57.852384v-332.395226c0-31.934004 25.91838-57.852384 57.852384-57.852384h332.267234c31.934004 0 57.852384 25.91838 57.852384 57.852384v332.267234a57.724392 57.724392 0 0 1-57.724392 57.980376z m-6.271608-362.72933a21.310668 21.310668 0 0 0-21.310668-21.310668h-277.29467a21.310668 21.310668 0 0 0-21.310668 21.310668v277.294669c0 11.775264 9.535404 21.310668 21.310668 21.310668h277.29467a21.310668 21.310668 0 0 0 21.310668-21.310668v-277.294669zM932.901694 1023.936004h-332.395226a57.852384 57.852384 0 0 1-57.852384-57.852384v-268.271233c0-31.934004 25.91838-57.852384 57.852384-57.852385h332.267234c31.934004 0 57.852384 25.91838 57.852384 57.852385v268.143241a57.724392 57.724392 0 0 1-57.724392 57.980376z m-6.271608-298.605337a21.310668 21.310668 0 0 0-21.310668-21.310668h-277.29467a21.310668 21.310668 0 0 0-21.310668 21.310668v213.234673c0 11.775264 9.535404 21.310668 21.310668 21.310668h277.29467a21.310668 21.310668 0 0 0 21.310668-21.310668v-213.234673zM933.029686 575.964002h-332.715206a58.23636 58.23636 0 0 1-57.660396-58.748328v-458.467346a58.23636 58.23636 0 0 1 57.660396-58.748328h332.715206a58.23636 58.23636 0 0 1 57.660396 58.748328v458.40335a58.23636 58.23636 0 0 1-57.660396 58.812324z m-6.3996-499.168802a12.7992 12.7992 0 0 0-12.7992-12.7992h-294.381602a12.7992 12.7992 0 0 0-12.7992 12.7992v422.373602c0 7.03956 5.75964 12.7992 12.7992 12.7992h294.381602a12.7992 12.7992 0 0 0 12.7992-12.7992v-422.373602zM419.717768 1023.936004h-332.715206a58.23636 58.23636 0 0 1-57.660396-58.748328v-394.471346a58.23636 58.23636 0 0 1 57.660396-58.748328h332.715206a58.23636 58.23636 0 0 1 57.660396 58.748328v394.40735a58.23636 58.23636 0 0 1-57.660396 58.812324z m-6.3996-435.172802a12.7992 12.7992 0 0 0-12.7992-12.7992h-294.381602a12.7992 12.7992 0 0 0-12.7992 12.7992v358.377602c0 7.03956 5.75964 12.7992 12.7992 12.7992h294.381602a12.7992 12.7992 0 0 0 12.7992-12.7992v-358.377602z" p-id="43591"></path></svg>