<?xml version="1.0" standalone="no"?><!DOCTYPE svg PUBLIC "-//W3C//DTD SVG 1.1//EN" "http://www.w3.org/Graphics/SVG/1.1/DTD/svg11.dtd"><svg class="icon" width="32px" height="32.00px" viewBox="0 0 1024 1024" version="1.1" xmlns="http://www.w3.org/2000/svg"><path d="M67.584 303.808a67.008 67.008 0 0 1 67.136-66.88h772.992a67.072 67.072 0 0 1 66.624 66.752v158.144l4.288 4.416H67.264V303.552l0.32 0.256z" fill="#4AB4FA" /><path d="M986.24 951.744a126.08 126.08 0 0 0 37.76-88.768v-574.72a125.248 125.248 0 0 0-125.632-124.352h-196.736V97.024a61.12 61.12 0 0 0-61.248-60.608h-257.92a60.992 60.992 0 0 0-60.608 60.736v66.752H124.352A125.248 125.248 0 0 0 0 288.256v574.656a125.44 125.44 0 0 0 37.312 88.64 122.88 122.88 0 0 0 88.384 35.968h772.032a122.24 122.24 0 0 0 88.512-35.776zM414.592 94.016h193.856c19.2 0.128 34.816 15.68 35.008 34.88v35.008H380.16v-35.008a35.2 35.2 0 0 1 34.432-34.88zM58.176 288.576a67.008 67.008 0 0 1 67.136-66.88h772.992a67.072 67.072 0 0 1 66.624 66.752v158.144l4.288 4.416H57.856V288.32l0.32 0.256z m520.768 256a67.392 67.392 0 1 1-134.848 0.064v-0.704c0.192-11.584 3.52-22.912 9.536-32.832l0.896-1.472h114.304l0.896 1.536c5.952 10.048 9.152 21.504 9.28 33.216l-0.064 0.192zM125.44 929.728a67.136 67.136 0 0 1-66.688-66.752V509.632h334.016l-1.088 3.968a127.552 127.552 0 0 0-4.416 31.104 126.72 126.72 0 0 0 40.32 87.744c24.384 22.912 56.896 35.008 90.304 33.664a127.04 127.04 0 0 0 120.512-121.92 120.064 120.064 0 0 0-5.44-30.848l-1.216-4.032h333.696v353.728a67.072 67.072 0 0 1-67.392 66.752H125.056l0.384-0.064z" fill="#999999" /></svg>