<?xml version="1.0" standalone="no"?><!DOCTYPE svg PUBLIC "-//W3C//DTD SVG 1.1//EN" "http://www.w3.org/Graphics/SVG/1.1/DTD/svg11.dtd"><svg t="1546055968103" class="icon" style="" viewBox="0 0 1024 1024" version="1.1" xmlns="http://www.w3.org/2000/svg" p-id="2678" xmlns:xlink="http://www.w3.org/1999/xlink" width="200" height="200"><defs><style type="text/css"></style></defs><path d="M654.72 564.928c-25.6 34.88-53.504 65.152-83.776 95.424a65.152 65.152 0 0 0-41.92-13.952c-30.272 0-55.872 18.624-65.152 46.528-93.12-23.296-181.504-58.176-260.672-107.072 20.928-79.104 55.872-153.6 100.096-218.752 4.672 0 9.28 2.304 16.32 2.304 39.552 0 69.824-30.272 69.824-69.824 0-9.28-2.304-18.624-4.672-27.904 27.904-27.904 55.872-51.2 86.08-74.496 25.6 139.648 90.752 265.28 183.872 367.744z" fill="#4AB4FA" p-id="2679"></path><path d="M512 0C228.096 0 0 228.096 0 512s228.096 512 512 512 512-228.096 512-512-228.096-512-512-512z m256 123.328v16.32c0 48.896-4.672 95.424-13.952 141.952a69.504 69.504 0 0 0-55.872 67.52c0 18.624 6.976 37.248 20.928 48.896-16.32 37.248-32.576 74.496-55.872 109.376a702.656 702.656 0 0 1-167.552-358.4 665.856 665.856 0 0 1 172.224-74.496A397.76 397.76 0 0 1 768 123.328z m-97.728 458.496c41.92 39.552 86.08 74.496 134.976 102.4-48.896 9.28-100.096 13.952-153.6 13.952-23.296 0-46.528-2.304-69.824-2.304 0-4.672 0-9.28-2.304-13.952 32.576-30.272 62.784-65.216 90.752-100.096zM512 46.528c25.6 0 51.2 2.304 76.8 6.976-32.576 13.952-65.152 27.904-97.728 44.224-2.304-16.32-2.304-32.576-2.304-48.896 6.912-2.304 16.256-2.304 23.232-2.304z m125.696 500.416c-25.6 34.88-53.504 65.152-83.776 95.424A65.152 65.152 0 0 0 512 628.416c-30.272 0-55.872 18.624-65.152 46.528-93.12-23.296-181.504-58.176-260.672-107.072 20.928-79.104 55.872-153.6 100.096-218.752 4.672 0 9.28 2.304 16.32 2.304 39.552 0 69.824-30.272 69.824-69.824 0-9.28-2.304-18.624-4.672-27.904 27.904-27.904 55.872-51.2 86.08-74.496 25.6 139.648 90.752 265.28 183.872 367.744z m-521.344 209.408A478.208 478.208 0 0 1 46.528 521.28c27.904 23.296 55.872 46.528 86.08 65.152-9.28 51.2-16.32 104.704-16.32 158.272l0.064 11.648z m30.272-216.448A773.12 773.12 0 0 1 51.2 463.104c23.296-209.472 186.176-377.024 393.28-409.6 0 25.6 2.304 48.896 4.672 74.496-39.232 27.648-76.608 57.984-111.68 90.752a65.728 65.728 0 0 0-34.88-9.28c-39.552 0-69.824 30.272-69.824 69.824 0 16.32 6.976 30.272 16.32 44.224a660.544 660.544 0 0 0-102.464 216.384z m20.928 283.968c-2.304-25.6-4.672-51.2-4.672-79.104 0-44.224 4.672-88.448 13.952-130.304a935.552 935.552 0 0 0 269.952 107.072c0 2.304 0 2.304 2.304 4.672-81.472 53.504-174.528 88.448-274.624 104.704-4.544-2.432-4.544-4.736-6.912-7.04zM512 977.472c-114.048 0-216.448-41.92-297.92-109.376a704.832 704.832 0 0 0 265.28-109.376 53.376 53.376 0 0 0 32.576 9.28c23.296 0 41.92-11.648 55.872-27.904 27.904 2.304 55.872 4.672 83.776 4.672 74.496 0 146.624-9.28 216.448-25.6 16.32 6.976 32.576 16.32 48.896 20.928A462.08 462.08 0 0 1 512 977.472z m360.704-307.2a687.36 687.36 0 0 1-176.896-128c25.6-39.552 46.528-81.472 65.152-123.328h6.976c39.552 0 69.824-30.272 69.824-69.824 0-27.904-16.32-51.2-39.552-62.848a584.96 584.96 0 0 0 13.952-128A463.616 463.616 0 0 1 975.04 512c0 46.528-6.976 88.448-18.624 130.304a438.592 438.592 0 0 1-83.712 27.968z" fill="#95979B" p-id="2680"></path></svg>