<?xml version="1.0" standalone="no"?><!DOCTYPE svg PUBLIC "-//W3C//DTD SVG 1.1//EN" "http://www.w3.org/Graphics/SVG/1.1/DTD/svg11.dtd"><svg t="1546068845908" class="icon" style="" viewBox="0 0 1024 1024" version="1.1" xmlns="http://www.w3.org/2000/svg" p-id="9389" xmlns:xlink="http://www.w3.org/1999/xlink" width="32" height="32"><defs><style type="text/css"></style></defs><path d="M412.39488 302.912c0 93.696-73.664 167.36-167.36 167.36S77.67488 396.608 77.67488 302.912s73.664-167.36 167.36-167.36 167.36 73.664 167.36 167.36z" fill="#6EC3FB" p-id="9390"></path><path d="M794.15488 891.776l-150.848-162.752 184-170.496-45.888-49.536-177.216 170.752-194.368-213.568c35.904-46.4 65.216-99.904 67.584-161.28C482.34688 175.36 377.38688 62.144 247.91488 57.216S5.16288 157.248 0.23488 286.72s100.032 242.752 229.504 247.68a235.072 235.072 0 0 0 123.968-29.44l443.648 482.432 42.688-46.144L1024.04288 770.816l-45.888-49.536-184 170.496zM405.48288 292.992c0 93.696-73.664 167.36-167.36 167.36S70.76288 386.688 70.76288 292.992 144.42688 125.632 238.12288 125.632s167.36 73.6 167.36 167.36z" fill="#76797D" p-id="9391"></path></svg>