<?xml version="1.0" standalone="no"?><!DOCTYPE svg PUBLIC "-//W3C//DTD SVG 1.1//EN" "http://www.w3.org/Graphics/SVG/1.1/DTD/svg11.dtd"><svg class="icon" width="32px" height="32.00px" viewBox="0 0 1024 1024" version="1.1" xmlns="http://www.w3.org/2000/svg"><path d="M511.744 570.56a68.352 68.352 0 0 0 0.512-136.576h-0.512a68.352 68.352 0 0 0 0 136.576z" fill="#4AB4FA" /><path d="M512 0a512 512 0 1 0 0 1024A512 512 0 0 0 512 0z m0 64a446.144 446.144 0 0 1 316.8 131.136A446.208 446.208 0 0 1 960 512a446.144 446.144 0 0 1-131.136 316.8A446.208 446.208 0 0 1 512 960a446.144 446.144 0 0 1-316.8-131.136A446.208 446.208 0 0 1 64 512a446.144 446.144 0 0 1 131.136-316.8A446.208 446.208 0 0 1 512 64" fill="#999999" /><path d="M505.088 623.488c-69.76 0-126.528-56.768-126.528-126.528s56.768-126.528 126.528-126.528 126.528 56.768 126.528 126.528-56.768 126.528-126.528 126.528z m0-192.896a66.56 66.56 0 1 0 66.496 66.496 66.56 66.56 0 0 0-66.496-66.496z" fill="#999999" /><path d="M591.232 646.528a30.272 30.272 0 0 1-23.552-11.328l-34.048-42.624a30.144 30.144 0 0 1 4.736-42.24 30.144 30.144 0 0 1 42.24 4.736l34.048 42.624a30.144 30.144 0 0 1-23.424 48.832zM324.736 668.224a29.824 29.824 0 0 1-21.504-9.088 230.464 230.464 0 0 1-46.656-68.864 203.904 203.904 0 0 1-17.216-81.792c0-51.84 19.52-101.184 56.448-142.656a30.08 30.08 0 0 1 44.928 39.936c-27.008 30.336-41.216 65.856-41.216 102.72 0 39.552 16.192 77.184 46.976 108.8a30.016 30.016 0 0 1-21.76 50.944z" fill="#999999" /><path d="M275.648 783.424a30.08 30.08 0 0 1-19.904-7.488 372.544 372.544 0 0 1-91.008-120.32c-22.336-47.232-33.728-97.472-33.728-149.44s11.328-102.208 33.728-149.44a374.4 374.4 0 0 1 91.008-120.32 30.016 30.016 0 1 1 39.744 44.992c-67.264 59.648-104.384 139.52-104.384 224.832 0 85.376 37.12 165.184 104.512 224.704a30.016 30.016 0 0 1-19.968 52.48zM679.552 668.224a29.888 29.888 0 0 1-21.504-50.944c30.656-31.616 46.976-69.184 46.976-108.8 0-36.864-14.208-72.384-41.216-102.72a30.08 30.08 0 0 1 44.928-39.936c36.928 41.472 56.448 90.816 56.448 142.656 0 28.096-5.824 55.552-17.216 81.792-10.88 24.896-26.496 48.128-46.656 68.864a30.848 30.848 0 0 1-21.76 9.088z" fill="#999999" /><path d="M735.04 783.424a30.016 30.016 0 0 1-19.904-52.48c67.392-59.584 104.384-139.456 104.384-224.704 0-85.376-37.12-165.184-104.384-224.704a30.016 30.016 0 1 1 39.744-44.992 372.544 372.544 0 0 1 91.008 120.32c22.336 47.232 33.728 97.472 33.728 149.44s-11.328 102.208-33.728 149.44a374.4 374.4 0 0 1-91.008 120.32 30.208 30.208 0 0 1-19.84 7.36z" fill="#999999" /></svg>