<?xml version="1.0" standalone="no"?><!DOCTYPE svg PUBLIC "-//W3C//DTD SVG 1.1//EN" "http://www.w3.org/Graphics/SVG/1.1/DTD/svg11.dtd"><svg t="1551323340833" class="icon" style="" viewBox="0 0 1024 1024" version="1.1" xmlns="http://www.w3.org/2000/svg" p-id="7439" xmlns:xlink="http://www.w3.org/1999/xlink" width="32" height="32"><defs><style type="text/css"></style></defs><path d="M290.176 383.296s15.68-37.12 53.504-37.12c12.736 0.192 32.896 14.528 37.824 22.784l-22.464 50.432c-3.264 7.552-14.208 31.104-14.208 31.104s-47.744 1.152-54.656-36.928c-3.264-21.504-1.152-25.216 0-30.272z" fill="#4AB4FA" p-id="7440"></path><path d="M890.368 140.928c-17.792-19.008-47.488-57.024-88.832-131.52-3.392-6.08-10.304-10.112-16.896-9.216a17.92 17.92 0 0 0-15.616 11.264c-27.776 68.288-136.448 216-137.92 217.92l-9.28 13.44a17.984 17.984 0 0 0-2.752 14.08c5.056 23.424 28.352 34.176 59.264 27.072 10.048-2.368 16.32-3.84 104.576-201.472 16.704 40.64 46.144 103.104 85.888 152.384 60.672 70.848 99.648 85.76 121.6 85.76a33.856 33.856 0 0 0 16-3.392 18.112 18.112 0 0 0 9.6-16c0.064-23.424-124.416-158.976-125.632-160.32zM472.896 59.968c-0.832-6.784-4.288-13.44-10.752-15.744-6.4-2.176-12.48-1.6-17.408 3.136-3.008 1.728-17.28 8.128-79.488 31.36l-17.792 6.4c-28.736 10.368-76.928 27.648-99.904 39.232-33.28 16.704-39.296 34.88-40.32 40.064a17.984 17.984 0 0 0 7.808 18.688c7.808 5.12 18.304 7.616 32.192 7.616 26.496 0 58.944-9.344 58.496-9.344 38.976-6.4 88.704-41.152 123.328-66.88-2.048 25.152-7.744 65.28-21.248 128.896l-1.024 5.12a18.112 18.112 0 0 0 9.984 19.84 54.72 54.72 0 0 0 23.36 5.504 50.24 50.24 0 0 0 38.4-18.752 18.112 18.112 0 0 0 3.968-10.432c3.648-75.968-9.088-180.288-9.6-184.704zM551.168 624c-20.8 0-36.224-4.8-41.28-6.4-35.84-10.944-97.088-60.672-71.296-169.792 2.24-7.68 19.2-63.104 43.712-93.632 1.344-1.856 47.872-63.616 116.48-63.616 19.84 0 39.36 5.184 58.176 15.36 31.168 18.496 53.632 49.344 62.272 85.12 7.616 31.616 8.32 82.624-31.68 146.176-45.312 71.744-99.2 86.784-136.384 86.784z m47.616-282.24c-42.624 0-75.712 43.264-76.032 43.712-16.064 20.096-30.464 61.248-34.752 75.52-20.928 88.896 34.624 107.008 36.992 107.712 3.328 1.024 13.184 4.096 26.176 4.096 35.392 0 66.688-21.184 93.056-62.912 24.128-38.336 32.896-75.264 25.28-106.816-5.44-22.464-19.2-41.6-37.824-52.608a68.544 68.544 0 0 0-32.896-8.704z" fill="#999999" p-id="7441"></path><path d="M519.68 469.44a82.368 67.584 90 1 0 135.168 0 82.368 67.584 90 1 0-135.168 0Z" fill="#4AB4FA" p-id="7442"></path><path d="M766.848 690.112c-15.296-18.752-34.816-34.752-61.44-50.304l-12.992-7.616-13.824 5.888a236.224 236.224 0 0 1-26.048 9.216c-59.264 17.92-189.376 57.344-267.456 106.496a462.976 462.976 0 0 1-56.96-133.376l-7.04-27.392-27.776 5.312C147.2 626.432 41.024 739.2 36.608 744l-16 17.152 12.736 19.648c108.672 167.936 313.408 230.656 418.24 241.344 18.112 1.28 35.008 1.856 50.752 1.856 134.464 0 191.808-42.368 222.592-65.152l10.88-7.872c43.968-33.28 64.576-76.864 59.2-124.608a60.16 60.16 0 0 0 9.408-23.168c6.72-35.84-13.824-84.032-37.568-113.088z m-38.272 112.576l5.12 21.952c6.848 29.568-4.672 55.936-32.96 77.376l-11.648 8.384c-26.944 19.968-72.128 53.312-186.752 53.312-14.464 0-29.952-0.512-45.632-1.6-82.752-8.384-258.88-59.776-358.72-193.856 30.08-27.328 96.768-80.96 179.904-104.512 29.952 95.424 75.136 148.928 77.184 151.36l19.072 22.272 22.784-18.432c62.144-50.24 215.424-96.64 272.768-114.048 6.016-1.792 11.84-3.648 17.472-5.696 14.08 9.28 24.704 18.624 33.088 28.928 19.584 23.936 27.904 56.768 27.648 61.76l-19.328 12.8z" fill="#999999" p-id="7443"></path><path d="M845.696 449.536c-21.952-145.92-141.312-242.88-305.472-247.04-71.04 1.344-131.328 22.592-179.136 63.04l-51.264 43.392 66.496 9.472 2.688 0.384c-21.952 23.552-49.856 58.368-62.528 94.272a861.76 861.76 0 0 1-28.352 68.928l-35.264-21.76-0.64 53.248c0 6.144 0.064 11.584 0.384 15.104 11.008 179.776 98.944 282.56 102.656 286.848l19.072 21.888 22.528-18.24c62.08-50.24 215.424-96.64 272.704-114.048 157.824-45.504 184.256-186.368 176.128-255.488z m-193.152 197.696c-59.264 17.984-189.568 57.408-267.584 106.624-20.992-32.448-56.896-99.712-69.056-195.456l0.704 0.192 11.52-21.568s12.736-23.872 27.584-58.816c5.76-13.568 11.776-28.8 17.536-44.992 13.824-39.168 59.072-84.224 75.328-98.304l12.672-11.072-2.688-16.64c-1.472-8.64-6.208-16.128-15.232-23.36a237.632 237.632 0 0 1 96.64-21.12c105.152 2.688 225.024 55.552 245.952 194.816 0.768 5.952 15.616 146.752-133.376 189.696z" fill="#999999" p-id="7444"></path><path d="M451.648 308.992c-2.24-13.248-14.528-23.744-42.176-36.096-66.432-30.592-175.68 26.368-191.68 138.88-12.48 87.936 44.736 126.912 76.736 135.296l18.432 4.736 8.96-16.704s12.672-23.68 27.328-58.432c5.696-13.44 11.712-28.608 17.344-44.672 17.216-48.64 76.416-100.224 76.992-100.736l10.304-8.896-2.24-13.376zM321.088 416a768.448 768.448 0 0 1-31.488 75.776c-13.76-10.24-30.016-31.424-24.128-73.216 8.896-62.592 61.44-106.176 102.976-106.176 7.488 0 14.336 1.408 20.736 4.288-22.144 22.784-54.336 60.416-68.096 99.328z" fill="#999999" p-id="7445"></path></svg>