<?xml version="1.0" standalone="no"?><!DOCTYPE svg PUBLIC "-//W3C//DTD SVG 1.1//EN" "http://www.w3.org/Graphics/SVG/1.1/DTD/svg11.dtd"><svg class="icon" width="32px" height="32.00px" viewBox="0 0 1024 1024" version="1.1" xmlns="http://www.w3.org/2000/svg"><path d="M518.592 242.56a68.352 68.352 0 0 0 0.576-136.576h-0.512a68.288 68.288 0 0 0-0.064 136.576zM137.664 697.6a68.352 68.352 0 0 0 0.512-136.576h-0.512a68.288 68.288 0 0 0 0 136.576zM900.288 676.8a68.288 68.288 0 0 0 0-136.576 68.288 68.288 0 0 0 0 136.576z" fill="#4AB4FA" /><path d="M879.04 800A446.848 446.848 0 0 1 512 992a447.808 447.808 0 0 1-404.288-256h72.384A383.488 383.488 0 0 0 512 927.68c113.28 0 215.04-49.28 285.376-127.68h81.664z m76.8-320A450.56 450.56 0 0 0 704 134.784V207.36a386.24 386.24 0 0 1 187.136 272.64h64.704z m-874.176-64C130.048 248.448 272.64 121.216 448 96v65.088A385.088 385.088 0 0 0 148.864 416h-67.2z" fill="#999999" /><path d="M512 224a64 64 0 0 0 0.512-128H512a64 64 0 0 0 0 128z m0 64A128 128 0 1 1 511.936 32.064 128 128 0 0 1 512 288z m-384 396.608a64 64 0 0 0 0.512-128H128a64 64 0 0 0 0 128z m0 64a128 128 0 1 1-0.064-255.936A128 128 0 0 1 128 748.608z m768-90.432a64 64 0 0 0 0-128 64 64 0 0 0 0 128z m0 64a128 128 0 1 1-0.064-255.936A128 128 0 0 1 896 722.176z" fill="#999999" /></svg>