<?xml version="1.0" standalone="no"?><!DOCTYPE svg PUBLIC "-//W3C//DTD SVG 1.1//EN" "http://www.w3.org/Graphics/SVG/1.1/DTD/svg11.dtd"><svg t="1546068839083" class="icon" style="" viewBox="0 0 1024 1024" version="1.1" xmlns="http://www.w3.org/2000/svg" p-id="9279" xmlns:xlink="http://www.w3.org/1999/xlink" width="32" height="32"><defs><style type="text/css"></style></defs><path d="M422.019485 422.019485h-172.670497c-95.224582 0-172.670497-77.445916-172.670497-172.670497s77.445916-172.670497 172.670497-172.670497 172.670497 77.445916 172.670497 172.670497v172.670497z" fill="#5EBCFB" p-id="9280"></path><path d="M238.349238 0.831376a237.517862 237.517862 0 0 0 0 475.035724h237.517862V238.349238A237.517862 237.517862 0 0 0 238.349238 0.831376z m172.670497 410.188359h-172.670497c-95.224582 0-172.670497-77.445916-172.670497-172.670497s77.445916-172.670497 172.670497-172.670497 172.670497 77.445916 172.670497 172.670497v172.670497zM1024.063952 238.349238a237.517862 237.517862 0 0 0-475.099675 0v237.517862h237.517861a237.517862 237.517862 0 0 0 237.581814-237.517862z m-410.252311 0c0-95.224582 77.445916-172.670497 172.670497-172.670497s172.670497 77.445916 172.670498 172.670497-77.445916 172.670497-172.670498 172.670497h-172.670497v-172.670497zM0.831376 786.482138a237.517862 237.517862 0 0 0 475.035724 0V548.964277H238.349238a237.517862 237.517862 0 0 0-237.517862 237.517861z m410.188359 0c0 95.224582-77.445916 172.670497-172.670497 172.670498s-172.670497-77.445916-172.670497-172.670498 77.445916-172.670497 172.670497-172.670497h172.670497v172.670497zM786.482138 548.964277H548.964277v237.517861a237.517862 237.517862 0 1 0 237.517861-237.517861z m0 410.188359a172.862353 172.862353 0 0 1-172.670497-172.670498v-172.670497h172.670497c95.224582 0 172.670497 77.445916 172.670498 172.670497s-77.445916 172.670497-172.670498 172.670498z" fill="#95979B" p-id="9281"></path></svg>