<?xml version="1.0" standalone="no"?><!DOCTYPE svg PUBLIC "-//W3C//DTD SVG 1.1//EN" "http://www.w3.org/Graphics/SVG/1.1/DTD/svg11.dtd"><svg t="1546068866195" class="icon" style="" viewBox="0 0 1024 1024" version="1.1" xmlns="http://www.w3.org/2000/svg" p-id="9499" xmlns:xlink="http://www.w3.org/1999/xlink" width="32" height="32"><defs><style type="text/css"></style></defs><path d="M693.76 543.872l-166.272-96-166.272 96v192l166.272 96 166.272-96z" fill="#4AB4FA" p-id="9500"></path><path d="M896 713.92a127.36 127.36 0 0 0-89.408 36.608l-65.152-40.128V506.88L551.104 396.992h0.64v-92.8a127.68 127.68 0 0 0-32-251.456 127.68 127.68 0 1 0-32 251.456v92.8h0.64L298.048 506.88v212.416l-65.024 40a127.232 127.232 0 0 0-97.088-45.504 128 128 0 1 0 125.504 103.168l63.168-38.848 195.2 112.704 202.688-117.056 51.456 31.616a126.592 126.592 0 0 0-5.952 36.544 128 128 0 1 0 128-128z m-760.128 192a64 64 0 1 1 0-128 64 64 0 0 1 0 128zM455.744 180.736a64 64 0 1 1 128 0 64 64 0 0 1-128 0z m230.272 550.144l-166.272 96-166.272-96v-192l166.272-96 166.272 96v192zM896 905.92a64 64 0 1 1 0-128 64 64 0 0 1 0 128z" fill="#95979B" p-id="9501"></path></svg>